<?xml version="1.0" encoding="utf-8"?>
<!-- Generator: Adobe Illustrator 23.1.0, SVG Export Plug-In . SVG Version: 6.00 Build 0)  -->
<svg version="1.1" id="Layer_1" xmlns="http://www.w3.org/2000/svg" xmlns:xlink="http://www.w3.org/1999/xlink" x="0px" y="0px"
	 viewBox="0 0 469.4 759.2" style="enable-background:new 0 0 469.4 759.2;" xml:space="preserve">
<style type="text/css">
	.st0{fill:#049026;}
	.st1{fill:#FFD629;}
</style>
<g>
	<g>
		<path class="st0" d="M182.6,157.7c-1.1,15.4-0.2,30.6,5.8,45.1c0.2,0.5,0.4,0.9,0.6,1.4c4,9.3,4,9.4,14,7.4
			c14.5-2.9,29-3.3,43.7-1c3.1,0.5,6.1,1.4,9.1,2.5c8.1,3.2,12.5,8.7,12.5,15.7c0,7.1-5.2,14.1-12.6,16.9
			c-12.6,4.8-25.2,3.3-37.6-0.9c-11.8-4-21.7-10.7-29.6-20.4c-1.8-2.3-3.7-3.6-6.8-2.7c-18.1,5-35,12.6-50,24.1
			c-2.2,1.7-4.2,3.8-5.9,6c-5.1,6.5-4.5,14.7,1.7,20.2c8.4,7.6,18.8,11.6,29.6,13.3c5.4,0.9,11.3-1.8,17-2.9
			c36.9-7,74.1-10.7,111.6-9.6c7.6,0.2,15.3,0.9,22.5,3.7c4.5,1.8,8.5,4.3,8.8,9.8c0.3,5.2-2.7,8.7-6.9,11.3
			c-8.9,5.4-18.8,7.5-28.9,8.8c-42,5.2-83.3,2.1-124.1-9.1c-1.5-0.4-2.8-0.8-4.3-0.3c-16.8,5.4-33.6,10.6-48.9,19.7
			C96,321.3,89.1,327,84.4,335s-3.6,14.3,3.3,20.4c3.5,3.2,7.8,5.1,11.9,7.3c1.8,0.9,3.3,0.3,4.8-0.3c39-14.3,79.6-21.4,120.5-26.6
			c30.7-3.9,61.6-6.3,92.6-4.1c13.9,1,28,1.9,40.4,9.4c10.3,6.3,11.5,17.4,3.1,26.1c-7.2,7.4-16.6,10.9-26,14.3
			c-28.8,10.3-58.8,14.1-89.2,15.1c-26,0.9-51.9,0.6-77.8-2.1c-25.3-2.7-50.4-6.7-73.8-17.7c-1.3-0.6-2.5-1.5-4.2-0.5
			c-7.9,4.7-15.8,9.2-22.2,16c-11.1,11.8-9.7,26.1,3.5,35.5c9.3,6.7,20.1,10.1,30.9,13.6c1.5,0.5,2.9-0.1,4.4-0.5
			c41.9-11.7,84.4-20,127.5-25.5c36.9-4.7,73.8-7.6,111-7.4c15.3,0.1,30.7,0.7,45.3,6.2c7.4,2.8,13.3,7.2,14.2,15.7
			c0.8,7.5-2.8,13.5-8.1,18.5c-6.8,6.4-15.1,10.2-23.8,13.2c-27,9.5-55,12.9-83.3,14.5c-36.1,2-72.2,1.1-108.1-3.7
			c-28.7-3.8-57.2-8.9-84.4-19.5c-1.4-0.5-2.8-1-4.4-0.4C76.6,458,60.9,464,47.1,473.8c-5.1,3.6-9.2,8.2-11.7,14
			c-2.3,5.4-1.5,10.4,2.3,14.9c5.2,6.1,12.3,8.9,19.4,11.8c1.5,0.6,2.9,0,4.4-0.5c35.9-12.7,73.1-18.3,110.7-22.6
			c55.9-6.4,111.9-7.8,168.1-6.4c24.4,0.6,48.9,1.6,73,6.5c6,1.2,12,2.8,17.4,5.9c10.3,5.8,11.3,16.6,2.2,24.1
			c-6.7,5.5-14.7,8.4-22.8,10.9c-21,6.5-42.6,10.2-64.4,13.1c-42.7,5.7-85.5,8.1-128.5,6.7c-30.6-1-61.1-3.9-91.3-9.1
			c-20.8-3.6-41.4-7.9-61.4-14.8c-1.3-0.5-2.4-0.6-3.8,0c-10.3,4.8-20.2,10-29,17.4c-14,11.8-10,23.6,2.9,31.8
			c14.1,8.9,30,12.4,46.1,15.1c45.1,7.4,90.5,10.7,136.1,12.2c3.2,0.1,5.5-0.6,7.8-3.1c19.9-21.8,44.9-34.9,73.2-42.2
			c34.3-8.8,69.1-14.7,104.7-12.4c15.3,1,30.4,3.3,44.2,11c14.2,8,19.3,21.3,12.7,34.8c-3.8,7.8-10.3,12.9-18,16.6
			c-14.7,7-30.4,10.5-46.4,13.1c-47.6,7.7-95.6,9.7-143.8,8.1c-3.4-0.1-5.3,0.8-7.1,3.8c-10.5,18.1-15.5,37.7-16.9,58.4
			c-0.6,9.8-1.4,19.6-0.3,29.4c0.3,2.6-0.4,4.9-1.6,7.1c-1.9,0.1-2-2.3-3.7-2.3c-1.4,1-1.2,2.6-1.5,4s-1.1,2.6-2.6,2.7
			c-1.6,0-2.1-1.4-2.3-2.8c-0.6-4.1-2.1-8.1-2.1-12.3c0-1.2,0.3-3.1-1.5-3.2c-1.5-0.1-2,1.7-2.2,2.9c-0.5,3.4-0.6,7-2.1,10.2
			c-0.4,0.9-0.6,2-1.8,2.1c-1.2,0-1.6-1.1-2-2c-1.1-2.5-0.7-5.6-3.2-7.9c-4.1,5.7-0.6,13.6-6.5,18.8c-2.2-2.9-1.7-6.4-3.2-9.4
			c-2.7,1.7-2.5,4.6-3.2,7c-0.9,3.4-1.4,6.8-2.3,10.2c-0.3,1.2-0.6,2.9-2.2,3.1c-2,0.2-2-1.9-2.6-3.1c-1.6-3.1-1.6-6.5-1.6-9.8
			c-0.1-35.9,5.8-70.5,21.9-102.9c0.8-1.6,1.7-3.2,2.5-4.9c0.1-0.1,0-0.3,0-0.9c-12.3-1.1-24.6-2-36.9-3.3
			c-36.2-3.8-72.4-8.2-107.6-18c-14.1-3.9-27-10-38.4-19.5c-13.1-11-17.6-26.7-10.7-40c4.4-8.5,12.1-14.1,19.9-19.2
			c4.9-3.2,10-5.8,15.3-8.8c-3-2.1-5.9-3.9-8.6-6c-13.3-10.3-14.3-26.4-2.7-38.6c9.8-10.3,22.4-15.8,35-21.7c4.6-2.2,9.5-3.8,15.1-6
			c-4-2.4-7.5-4.4-10.9-6.5c-5.3-3.2-10.2-6.9-14.1-11.8c-11.8-14.4-9.7-31.4,5.7-44.9c5.9-5.2,12.2-9.7,19.1-13.6
			c-0.4-1.6-1.9-2.2-3.1-3.1C66.7,356.6,64.6,340,75,325.7c7.6-10.4,18.4-16.7,29.7-22.2c9.7-4.7,19.9-8.4,30.2-11.6
			c1-0.3,2.4-0.2,3-1.9c-5.6-3-11.2-6.1-16-10.6c-9.5-8.9-10.6-21-2.9-31.4c6-8.1,14.4-13.2,23.1-17.8c11.5-6.1,23.7-10.3,36.3-13.6
			c2.1-0.5,4-0.7,2.6-3.8c-7.2-15-8.5-30.9-7-47.2C176.2,162.6,179.3,160,182.6,157.7z M81.3,520.2c1.2,0.6,1.8,1,2.4,1.1
			c11.8,1.9,23.7,3.5,35.6,4.3c30.6,2,61.2,2,91.8,1.4c55.1-1.1,110.1-2.3,164.9-8.6c12.7-1.5,25.4-3.5,37.7-7.2
			c1.2-0.4,3.4-0.5,3.2-2.5c-0.1-1.5-1.9-1.7-3.1-2.1c-5.1-1.4-10.2-3-15.4-4.1c-36.6-8-73.9-9.8-111.1-9.6
			c-55,0.2-109.6,4.5-163.6,15.8C109.5,511.6,95.5,515.1,81.3,520.2z M119.6,444.3c0,0.3,0.1,0.6,0.1,0.9c2.2,0.4,4.4,0.9,6.5,1.3
			c23.5,4.3,47.1,6.4,70.9,7.4c50.8,2,101.5,1.6,151.7-7.5c11.4-2.1,22.8-4.6,33-10.7c1.6-0.9,3.4-2,3.3-4c-0.1-2.2-2.2-2.6-4-3.2
			c-2-0.7-4.1-1.4-6.2-1.9c-24.4-5.3-49.1-6-73.9-5.5c-51,0.9-101.5,6.8-151.6,16.5C139.5,439.6,129.6,442.1,119.6,444.3z
			 M113.7,365.9c0.7,1.8,1.9,1.5,2.8,1.8c27.5,7.7,55.8,9,84.1,9.5c37,0.6,73.8-2.2,110.5-7.6c11.5-1.7,22.9-4,33.8-8.2
			c2.7-1,5.1-2.7,5.2-6.1s-2.3-5-5-6.1c-1.7-0.7-3.4-1.4-5.2-1.8c-17.4-3.9-35.1-5.6-53-5.9c-36.4-0.7-72.5,1.8-108.4,8
			C156.5,353.3,134.9,358.3,113.7,365.9z M270.8,604.9c8.4,0,15.8,0.1,23.2,0c36.8-0.6,73.5-1.5,109.8-8.4c10.7-2,21.6-3.9,31-10.2
			c6-4,5.8-5.7-0.7-9.1c-10.2-5.4-21.3-6.2-32.4-6.7c-30.1-1.4-59.2,4.6-87.7,13.7C298.9,589,284.4,594.9,270.8,604.9z M181.8,290
			c1.1,1.4,2.5,1.4,3.8,1.5c29.2,4.1,58.6,5.2,88,2.9c9.6-0.7,19.2-1.8,28.4-4.9c1.5-0.5,3.7-0.8,3.8-2.7c0.1-2.5-2.5-2.4-4-2.9
			c-5.6-1.7-11.3-2.7-17.1-3.2C249.9,278.1,215.9,283.1,181.8,290z M199.4,217.1c8.4,8.9,18,14,29,16.3c8.3,1.7,16.7,3.1,25,0
			c6.7-2.6,7.7-8.9,2.5-13.8c-3.3-3.1-7.5-4.2-11.8-4.9C229.3,212.1,214.8,214.6,199.4,217.1z"/>
	</g>
</g>
<g>
	<path class="st1" d="M163.8,171.4c-3.3,2.3-6.3,4.9-8.9,8c-8.5,7.4-17,15-28.1,18.4c-1.1,0.3-2.2,0.9-3.3,1
		c-5.5,0.9-11,1.8-15.3-2.9c-4.1-4.4-2.2-9.4-0.6-14.1c4.6-13.3,9.1-26.7,14.1-39.9c1.8-4.6,0.8-7.2-3.2-9.9
		c-11.1-7.7-20.6-17.4-29.6-27.4c-5-5.5-3.2-10.5,4-12.3c11.1-2.8,22.5-1.7,33.8-2.5c2.5-0.2,5-0.4,7.5-0.4
		c6.5,0.1,10.5-3.1,13.1-8.8c5.9-13,11.9-25.9,17.7-38.9c2.7-5.9,5.6-11.3,12.4-13.4c4-1.3,6.5-0.4,8.4,3.6
		c4.7,9.7,8.3,19.9,12.4,29.9c1.9,4.6,4.4,8.9,6.7,13.3c1.3,2.6,3.6,4.1,6.7,4.7c11.1,2,22.1,5,33.5,4.6c1.2,0,2.3,0,3.5,0.2
		c4.1,0.5,7.8,1.7,9.8,5.7c2.1,4.2,0.5,8.1-2.2,11.1c-6.4,7-13.1,13.7-19.7,20.5c-2.6,2.6-5.1,5.2-7.7,7.9c-4,4.2-4.4,8.8-1.9,14.1
		c6.3,13.5,12.2,27.2,18.4,40.8c1,2.3,2,4.6,2.3,7.1c1.1,6.9-2.1,10.2-8.7,8.4c-11.3-3.1-21.5-8.7-30.9-15.7
		c-6.5-4.9-12.6-10.3-19.2-15C179.2,162.5,172.4,163.3,163.8,171.4z"/>
</g>
</svg>
