<?xml version="1.0" encoding="utf-8"?>
<!-- Generator: Adobe Illustrator 23.1.0, SVG Export Plug-In . SVG Version: 6.00 Build 0)  -->
<svg version="1.0" id="Layer_1" xmlns="http://www.w3.org/2000/svg" xmlns:xlink="http://www.w3.org/1999/xlink" x="0px" y="0px"
	 viewBox="0 0 24 20.9" style="enable-background:new 0 0 24 20.9;" xml:space="preserve">
<style type="text/css">
	.st0{fill-rule:evenodd;clip-rule:evenodd;fill:#F7941E;}
</style>
<path class="st0" d="M7,2.1c1.9,0,3.4,1.3,3.9,3H19v2h-8.1c-0.4,1.7-2,3-3.9,3c-2.2,0-4-1.8-4-4S4.8,2.1,7,2.1z M7,8.1
	c1.1,0,2-0.9,2-2s-0.9-2-2-2S5,5,5,6.1S5.9,8.1,7,8.1z"/>
<path class="st0" d="M17,19.1c-1.9,0-3.4-1.3-3.9-3H5v-2h8.1c0.4-1.7,2-3,3.9-3c2.2,0,4,1.8,4,4S19.2,19.1,17,19.1z M17,17.1
	c1.1,0,2-0.9,2-2c0-1.1-0.9-2-2-2s-2,0.9-2,2C15,16.2,15.9,17.1,17,17.1z"/>
</svg>
