<svg xmlns="http://www.w3.org/2000/svg" width="28" height="28" viewBox="0 0 28 28">
    <defs>
        <linearGradient id="ya0rxjwmoa" x1="0%" x2="100%" y1="50%" y2="50%">
            <stop offset="0%" stop-color="#B64D1B"/>
            <stop offset="100%" stop-color="#EDC229"/>
        </linearGradient>
    </defs>
    <g fill="none" fill-rule="evenodd">
        <g fill="url(#ya0rxjwmoa)" transform="translate(-16 -356)">
            <g>
                <path d="M1 0c.552 0 1 .448 1 1 0 5.468 1.93 7.975 5.94 8l.113-.001.157-.003c2.636-.096 4.212-2.023 4.8-6.137l.004-.027c.005-.027.01-.054.017-.08l-.02.107c.006-.05.017-.097.03-.143l.022-.067.026-.061.019-.04.024-.045.037-.06.015-.022.048-.061c.01-.012.02-.025.032-.037l.042-.043.044-.04.039-.032c.013-.01.026-.02.04-.028.017-.013.035-.025.053-.036l.039-.022c.018-.01.037-.02.056-.028.016-.008.031-.014.047-.02.017-.008.035-.014.052-.02l.053-.017.06-.015.01-.002.084-.013.011-.001c.027-.003.053-.005.08-.006H14.025l.037.002L14 2c.046 0 .092.003.137.01h.004l.019.003c.03.004.058.01.087.018l-.106-.02c.053.006.103.018.152.033.02.006.039.012.058.02.016.005.032.012.047.018.02.009.04.018.058.028.015.008.03.015.044.024l.049.03.046.032.045.036c.01.007.019.015.028.024.02.018.04.037.058.056l.016.017c.018.02.035.04.05.061l.027.036.035.053.026.046.025.05.022.05.017.046c.009.023.016.047.022.071l.01.038c.005.022.01.046.013.07l.005.044c.003.024.005.047.006.071V3c0 4.833 1.625 7 5 7 2.967 0 4.948-1.132 6.106-3.447.247-.494.847-.694 1.341-.447.494.247.694.847.447 1.341-1.08 2.16-2.761 3.56-4.986 4.181-.218 1.397-.194 2.606.062 3.63.277 1.106.856 2.119 1.75 3.048.569.59.225 1.577-.588 1.685l-1.56.208c.148.92.503 1.58 1.053 2.02.597.478 1.552.478 2.979-.137.507-.219 1.096.015 1.314.522.219.507-.015 1.096-.522 1.314-2.039.88-3.75.88-5.02-.137-.977-.781-1.568-1.902-1.787-3.316l-1.479.197c.197 1.167.468 2.149.81 2.944.407.952 1.009 1.855 1.81 2.71.377.404.357 1.037-.047 1.414-.403.377-1.036.357-1.413-.047-.956-1.02-1.687-2.118-2.19-3.29-.414-.967-.73-2.122-.953-3.466l-.495.064c-.53.07-1.022-.288-1.116-.814-.28-1.56-.28-3.175-.002-4.841.23-1.384.64-2.726 1.226-4.024-1.443-.711-2.474-1.971-3.083-3.74-.88 1.64-2.126 2.712-3.729 3.171-.082.95-.06 1.818.06 2.605.145.94.442 1.832.895 2.682l-.047-.092.074.085c.846 1.027 1.363 2.485 1.583 4.36.233 1.979.046 3.66-.584 5.034-.23.502-.824.722-1.326.492-.502-.23-.722-.824-.492-1.326.462-1.007.609-2.327.416-3.966-.158-1.345-.48-2.36-.944-3.056l-2.204.277c.508 1.759.318 3.101-.734 3.943-1.16.928-3.098.928-5.883.185-.533-.142-.85-.69-.708-1.224.142-.533.69-.85 1.224-.708 2.215.59 3.61.59 4.117.185.383-.306.383-1.2-.298-2.834-.541-1.309-.897-2.555-1.067-3.744-.17-1.193-.17-2.45-.002-3.768l-.025.219C1.346 8.664 0 5.577 0 1c0-.552.448-1 1-1zm19 3c1.657 0 3 1.343 3 3s-1.343 3-3 3-3-1.343-3-3 1.343-3 3-3zM8 1c1.657 0 3 1.343 3 3S9.657 7 8 7 5 5.657 5 4s1.343-3 3-3z" transform="translate(16 356)"/>
            </g>
        </g>
    </g>
</svg>
