<svg xmlns="http://www.w3.org/2000/svg" width="28" height="28" viewBox="0 0 28 28">
    <defs>
        <linearGradient id="7928psolaa" x1="0%" x2="100%" y1="50%" y2="50%">
            <stop offset="0%" stop-color="#B64D1B"/>
            <stop offset="100%" stop-color="#EDC229"/>
        </linearGradient>
    </defs>
    <g fill="none" fill-rule="evenodd">
        <g>
            <g>
                <path fill="url(#7928psolaa)" d="M21 19.083V21c0 .265-.105.52-.293.707l-6 6c-.63.63-1.707.184-1.707-.707v-2.927c2.838-1.197 5.506-2.863 8-4.99zm6.82-17.219c.029.195.029.394 0 .589-.83 5.576-2.864 10.005-6.113 13.254-3.266 3.266-6.855 5.61-10.763 7.024-.73.263-1.546.081-2.094-.467L5.736 19.15c-.549-.548-.73-1.365-.467-2.094 1.414-3.908 3.758-7.497 7.024-10.763C15.542 3.044 19.97 1.01 25.547.18c1.093-.162 2.11.591 2.273 1.684zM8.917 7c-2.127 2.494-3.793 5.163-4.99 8L1 15c-.89 0-1.337-1.077-.707-1.707l6-6C6.48 7.105 6.735 7 7 7h1.917zM20.5 5C19.12 5 18 6.12 18 7.5s1.12 2.5 2.5 2.5S23 8.88 23 7.5 21.88 5 20.5 5z" transform="translate(-16 -416) translate(16 416)"/>
            </g>
        </g>
    </g>
</svg>
