<svg xmlns="http://www.w3.org/2000/svg" width="28" height="28" viewBox="0 0 28 28">
    <defs>
        <linearGradient id="xdo8bkncaa" x1="0%" x2="100%" y1="50%" y2="50%">
            <stop offset="0%" stop-color="#B64D1B"/>
            <stop offset="100%" stop-color="#EDC229"/>
        </linearGradient>
    </defs>
    <g fill="none" fill-rule="evenodd">
        <g>
            <g>
                <path fill="url(#xdo8bkncaa)" d="M26 2c1.105 0 2 .895 2 2v20c0 1.105-.895 2-2 2H2c-1.105 0-2-.895-2-2V4c0-1.105.895-2 2-2h24zM4 21H3c-.552 0-1 .448-1 1v1c0 .552.448 1 1 1h1c.552 0 1-.448 1-1v-1c0-.552-.448-1-1-1zm17 0h-1c-.552 0-1 .448-1 1v1c0 .552.448 1 1 1h1c.552 0 1-.448 1-1v-1c0-.552-.448-1-1-1zm4 0h-1c-.552 0-1 .448-1 1v1c0 .552.448 1 1 1h1c.552 0 1-.448 1-1v-1c0-.552-.448-1-1-1zM8 21H7c-.552 0-1 .448-1 1v1c0 .552.448 1 1 1h1c.552 0 1-.448 1-1v-1c0-.552-.448-1-1-1zm4 0h-1c-.552 0-1 .448-1 1v1c0 .552.448 1 1 1h1c.552 0 1-.448 1-1v-1c0-.552-.448-1-1-1zm5 0h-1c-.552 0-1 .448-1 1v1c0 .552.448 1 1 1h1c.552 0 1-.448 1-1v-1c0-.552-.448-1-1-1zm-4.486-10.857c-.666-.4-1.514.08-1.514.857v6c0 .777.848 1.257 1.514.857l5-3c.648-.388.648-1.326 0-1.714zM4 4H3c-.552 0-1 .448-1 1v1c0 .552.448 1 1 1h1c.552 0 1-.448 1-1V5c0-.552-.448-1-1-1zm17 0h-1c-.552 0-1 .448-1 1v1c0 .552.448 1 1 1h1c.552 0 1-.448 1-1V5c0-.552-.448-1-1-1zm4 0h-1c-.552 0-1 .448-1 1v1c0 .552.448 1 1 1h1c.552 0 1-.448 1-1V5c0-.552-.448-1-1-1zM8 4H7c-.552 0-1 .448-1 1v1c0 .552.448 1 1 1h1c.552 0 1-.448 1-1V5c0-.552-.448-1-1-1zm4 0h-1c-.552 0-1 .448-1 1v1c0 .552.448 1 1 1h1c.552 0 1-.448 1-1V5c0-.552-.448-1-1-1zm5 0h-1c-.552 0-1 .448-1 1v1c0 .552.448 1 1 1h1c.552 0 1-.448 1-1V5c0-.552-.448-1-1-1z" transform="translate(-16 -236) translate(16 236)"/>
            </g>
        </g>
    </g>
</svg>
