<svg xmlns="http://www.w3.org/2000/svg" width="28" height="28" viewBox="0 0 28 28">
    <defs>
        <linearGradient id="veh8eo1o3a" x1="0%" x2="100%" y1="50%" y2="50%">
            <stop offset="0%" stop-color="#B64D1B"/>
            <stop offset="100%" stop-color="#EDC229"/>
        </linearGradient>
    </defs>
    <g fill="none" fill-rule="evenodd">
        <g>
            <g>
                <path fill="url(#veh8eo1o3a)" d="M20 0c.552 0 1 .448 1 1v1h2c2.761 0 5 2.239 5 5v14c0 2.761-2.239 5-5 5H5c-2.761 0-5-2.239-5-5V7c0-2.761 2.239-5 5-5h1.999L7 1c0-.552.448-1 1-1s1 .448 1 1l-.001 1H19V1c0-.552.448-1 1-1zM6.999 4H5l-.176.005C3.249 4.096 2 5.402 2 7v14c0 1.657 1.343 3 3 3h18c1.657 0 3-1.343 3-3V7c0-1.657-1.343-3-3-3h-2v2h2c.552 0 1 .448 1 1v14c0 .552-.448 1-1 1H5c-.552 0-1-.448-1-1V7c0-.552.448-1 1-1h1.999V4zm6.168 4.446l-.064.111-1.237 2.506-2.765.402c-.781.114-1.116 1.033-.633 1.62l.079.086 2 1.95-.472 2.755c-.133.78.642 1.383 1.35 1.1l.101-.046L14 17.63l2.474 1.3c.7.368 1.513-.183 1.464-.944l-.013-.11-.473-2.754 2.001-1.951c.566-.551.295-1.491-.44-1.683l-.114-.023-2.765-.402-1.237-2.506c-.348-.704-1.317-.74-1.73-.11zM19 4H8.999v2H19V4z" transform="translate(-16 -296) translate(16 296)"/>
            </g>
        </g>
    </g>
</svg>
