<svg width="132" height="32" viewBox="0 0 132 32" xmlns="http://www.w3.org/2000/svg" xmlns:xlink="http://www.w3.org/1999/xlink">
    <defs>
        <linearGradient x1="50%" y1="0%" x2="50%" y2="38.913%" id="n9y2plbkwb">
            <stop stop-color="#FBDA09" offset="0%"/>
            <stop stop-color="#FFBC00" offset="100%"/>
        </linearGradient>
        <linearGradient x1="38.258%" y1="58.476%" x2="54.534%" y2="39.083%" id="s2c2farflc">
            <stop stop-color="#01E2FF" offset="0%"/>
            <stop stop-color="#01C4FF" offset="100%"/>
        </linearGradient>
        <linearGradient x1="20.281%" y1="33.658%" x2="83.82%" y2="68.378%" id="w69ihff37e">
            <stop stop-color="#28D781" offset="0%"/>
            <stop stop-color="#02F076" offset="100%"/>
        </linearGradient>
        <linearGradient x1="74.488%" y1="34.12%" x2="10.108%" y2="70.079%" id="4mgwq1xouf">
            <stop stop-color="#F2414E" offset="0%"/>
            <stop stop-color="#E02554" offset="100%"/>
        </linearGradient>
        <path d="m12.59 2.473 7.937 13.964a3 3 0 0 1-2.608 4.482H2.045a3 3 0 0 1-2.608-4.482L7.373 2.473a3 3 0 0 1 5.217 0z" id="kadsvv6tza"/>
    </defs>
    <g fill="none" fill-rule="evenodd">
        <path d="M74.928 12.057c1.782-.05 2.678 1.107 2.753 1.208l.005.007v-.902l2.059.017v9.124c0 2.331-1.412 4.792-4.735 4.792-3.229 0-4.334-2.732-4.394-2.888l-.003-.007 1.891-.782s.577 1.784 2.604 1.784c2.234 0 2.558-1.934 2.577-2.699l.001-1.063-.017.025-.048.063c-.227.28-1.057 1.141-2.718 1.141-2.15 0-4.707-1.811-4.707-4.9 0-3.09 2.407-4.856 4.732-4.92zm48.856.309 2.7 6.306 2.68-6.256h2.106l-5.696 13.302h-2.106l1.963-4.587-3.753-8.765h2.106zm-83.41-5.693c2.242 0 4.126.768 5.414 2.102l-1.514 1.486c-.944-.948-2.286-1.467-3.834-1.467-3.093 0-5.601 2.46-5.601 5.495 0 3.034 2.508 5.495 5.601 5.495 2.684 0 4.693-1.32 5.175-4.112l-5.142-.001v-2.057h7.169l.001.076c.728 5.237-2.909 8.253-7.268 8.214-4.288-.006-7.764-3.41-7.764-7.615 0-4.206 3.476-7.616 7.764-7.616zm48.765 5.382c3.437 0 4.403 3.506 4.451 3.69l.002.008-6.66 2.706s.43 1.496 2.433 1.506c1.496.008 2.37-1.244 2.447-1.358l.006-.008 1.69 1.125s-1.364 2.168-4.156 2.168c-3.432 0-4.943-2.95-4.943-4.866 0-1.845 1.2-4.97 4.73-4.97zm-24.88 0c2.768 0 5.012 2.202 5.012 4.917s-2.244 4.916-5.012 4.916c-2.768 0-5.012-2.201-5.012-4.916 0-2.715 2.244-4.917 5.012-4.917zm-10.844 0c2.768 0 5.012 2.202 5.012 4.917s-2.244 4.916-5.012 4.916c-2.768 0-5.012-2.201-5.012-4.916 0-2.715 2.244-4.917 5.012-4.917zm58.156-4.864v14.49h-2.105V7.191h2.105zm-7.99-.003a4.2 4.2 0 0 1 0 8.4H99.59v6.09h-1.81V7.188h5.8zm13.615 4.867c3.57 0 4.252 2.36 4.284 3.254l.001.054v6.313h-2.105v-1.032c-.58.471-1.507.914-2.972 1.004-3.191.196-3.349-2.518-3.356-2.958v-.049l-.003-.103.001-.118c.014-.659.228-2.493 2.505-2.826 1.89-.277 3.215.185 3.826.477v-.424c-.15-.563-.615-1.603-2.013-1.603-1.687 0-2.217.79-2.32.979l-.018.036-.002.005-1.754-1.02s.981-1.989 3.926-1.989zM83.478 7.191v14.46h-2.227V7.19h2.227zm-8.399 6.791c-1.502 0-2.719 1.353-2.719 3.02 0 1.669 1.217 3.021 2.72 3.021 1.5 0 2.718-1.352 2.718-3.02s-1.217-3.02-2.719-3.02zm39.949 4.725c-.141 2.24 3.891 1.164 4.252-.424 0-.505-.055-.742-.055-.742s-4.056-1.075-4.197 1.166zm-50.802-4.724c-1.556 0-2.817 1.338-2.817 2.989 0 1.65 1.261 2.988 2.817 2.988 1.556 0 2.818-1.338 2.818-2.988s-1.262-2.989-2.818-2.989zm-10.844 0c-1.555 0-2.817 1.338-2.817 2.989 0 1.65 1.262 2.988 2.817 2.988 1.556 0 2.818-1.338 2.818-2.988s-1.262-2.989-2.818-2.989zm35.554-.019c-2.719.49-2.377 2.828-2.377 2.828l4.5-1.805s-.839-1.254-2.123-1.023zm14.644-4.966h-3.99v4.78h3.99a2.39 2.39 0 0 0 .164-4.774l-.164-.006z" fill="#FFF"/>
        <g transform="translate(0 4)">
            <mask id="7trk4qnc0d" fill="#fff">
                <use xlink:href="#kadsvv6tza" transform="rotate(90 9.982 10.937)"/>
            </mask>
            <use fill="url(#n9y2plbkwb)" transform="rotate(90 9.982 10.937)" xlink:href="#kadsvv6tza"/>
            <path fill="url(#s2c2farflc)" mask="url(#7trk4qnc0d)" d="m-.908-1.052 12.285 12.267L-.908 24.299z"/>
            <path fill="url(#w69ihff37e)" mask="url(#7trk4qnc0d)" d="m-3.555-3.505 14.932 14.72 4.978-4.907L2.95-1.012z"/>
            <path fill="url(#4mgwq1xouf)" mask="url(#7trk4qnc0d)" d="m11.35 11.215 6.664 6.95-19.91 6.952z"/>
        </g>
    </g>
</svg>
