<svg width="119" height="32" viewBox="0 0 119 32" xmlns="http://www.w3.org/2000/svg">
    <g fill="#FFF" fill-rule="evenodd">
        <path d="m15.239 7.456.296.019c.83.022 3.189.305 4.711 2.374-.123.069-2.81 1.542-2.781 4.569.034 3.628 3.405 4.828 3.445 4.84-.02.085-.528 1.733-1.792 3.403-1.056 1.473-2.162 2.913-3.919 2.937-1.707.038-2.28-.935-4.238-.935-1.976 0-2.587.91-4.224.973-1.674.057-2.952-1.57-4.046-3.03-2.187-2.979-3.89-8.394-1.607-12.079a6.346 6.346 0 0 1 5.279-3.002c1.675-.032 3.23 1.055 4.26 1.055 1.009 0 2.93-1.3 4.912-1.105zM15.43 2c.146 1.397-.381 2.774-1.152 3.786-.804.996-2.09 1.758-3.343 1.66-.164-1.344.47-2.774 1.181-3.646.803-.99 2.198-1.748 3.314-1.8zM35.527 22l1.216-3.078h5.833L43.83 22h2.736L40.771 8.548H38.7L32.848 22h2.679zm6.213-5.13h-4.18l2.109-5.472 2.071 5.472zm8.05 9.69v-5.776h.039c.29.456.706.817 1.244 1.083s1.13.399 1.777.399c.696 0 1.32-.13 1.871-.39a4.297 4.297 0 0 0 1.406-1.045c.386-.436.684-.95.893-1.538.21-.59.314-1.22.314-1.891s-.108-1.298-.323-1.881a4.59 4.59 0 0 0-.912-1.52 4.262 4.262 0 0 0-1.406-1.016 4.273 4.273 0 0 0-1.786-.371 4.15 4.15 0 0 0-2.033.503c-.266.146-.491.31-.675.494a3.303 3.303 0 0 0-.446.542h-.057V12.88H47.51v13.68h2.28zm2.604-6.194c-.418 0-.792-.085-1.121-.256a2.746 2.746 0 0 1-.846-.675 2.94 2.94 0 0 1-.532-.94 3.21 3.21 0 0 1 0-2.119 2.872 2.872 0 0 1 1.377-1.634c.33-.177.704-.266 1.122-.266.443 0 .83.085 1.159.256.329.171.601.396.817.675.215.279.376.592.484.94a3.553 3.553 0 0 1 0 2.119 2.93 2.93 0 0 1-.484.95 2.536 2.536 0 0 1-.817.684c-.33.177-.716.266-1.16.266zm9.152 6.194v-5.776h.038c.291.456.706.817 1.245 1.083.538.266 1.13.399 1.776.399.697 0 1.32-.13 1.872-.39a4.297 4.297 0 0 0 1.406-1.045c.386-.436.684-.95.893-1.538.209-.59.313-1.22.313-1.891s-.108-1.298-.323-1.881a4.59 4.59 0 0 0-.912-1.52 4.262 4.262 0 0 0-1.406-1.016 4.273 4.273 0 0 0-1.786-.371 4.15 4.15 0 0 0-2.033.503c-.266.146-.49.31-.674.494a3.303 3.303 0 0 0-.447.542h-.057V12.88h-2.185v13.68h2.28zm2.603-6.194c-.418 0-.792-.085-1.12-.256a2.746 2.746 0 0 1-.846-.675 2.94 2.94 0 0 1-.532-.94 3.21 3.21 0 0 1 0-2.119 2.872 2.872 0 0 1 1.377-1.634c.33-.177.703-.266 1.121-.266.443 0 .83.085 1.16.256.328.171.6.396.816.675.215.279.377.592.485.94a3.553 3.553 0 0 1 0 2.119 2.93 2.93 0 0 1-.485.95 2.536 2.536 0 0 1-.817.684c-.33.177-.716.266-1.159.266zm15.075 1.976c.659 0 1.286-.089 1.881-.266a4.537 4.537 0 0 0 1.558-.798 3.9 3.9 0 0 0 1.064-1.34c.266-.538.4-1.168.4-1.89 0-.659-.124-1.21-.371-1.653a3.484 3.484 0 0 0-.95-1.102 5.188 5.188 0 0 0-1.273-.703 26.676 26.676 0 0 0-1.34-.475c-.38-.114-.728-.228-1.045-.342a3.554 3.554 0 0 1-.807-.399 1.729 1.729 0 0 1-.523-.551 1.51 1.51 0 0 1-.19-.779c0-.33.073-.611.219-.846.145-.234.332-.424.56-.57.228-.145.482-.253.76-.322a3.203 3.203 0 0 1 2.233.228c.462.221.82.497 1.073.826l1.558-1.71a5.084 5.084 0 0 0-1.833-1.083 6.396 6.396 0 0 0-2.08-.361c-.609 0-1.207.08-1.796.238a4.989 4.989 0 0 0-1.577.721 3.78 3.78 0 0 0-1.121 1.226c-.285.494-.428 1.083-.428 1.767 0 .633.102 1.162.304 1.587.203.424.466.782.789 1.073.323.291.687.526 1.092.703.406.177.811.33 1.216.456l.412.137.785.262c.38.127.71.275.988.447.279.17.5.373.665.607.165.235.247.53.247.884 0 .367-.073.674-.218.921a1.968 1.968 0 0 1-.57.618 2.28 2.28 0 0 1-.789.351 3.67 3.67 0 0 1-.855.105c-.532 0-1.073-.133-1.624-.399a3.434 3.434 0 0 1-1.32-1.083l-1.71 1.596c.531.633 1.215 1.112 2.051 1.435a7.061 7.061 0 0 0 2.565.484zm10.046-.152c.253 0 .52-.022.798-.067.279-.044.52-.104.722-.18l-.076-1.786c-.14.063-.298.11-.475.142a2.822 2.822 0 0 1-.494.048c-.507 0-.833-.133-.979-.399-.145-.266-.218-.602-.218-1.007v-4.237h2.28V12.88h-2.28v-2.641h-2.242v2.641H84.71v1.824h1.596v4.256c0 .443.041.858.123 1.244.083.387.235.729.456 1.026.222.298.523.532.903.703.38.172.874.257 1.482.257zm7.366.076c.684 0 1.33-.12 1.938-.361a4.816 4.816 0 0 0 1.577-.998 4.68 4.68 0 0 0 1.055-1.529 4.89 4.89 0 0 0 .39-1.976c0-.722-.13-1.378-.39-1.967a4.598 4.598 0 0 0-1.055-1.51 4.648 4.648 0 0 0-1.577-.969 5.474 5.474 0 0 0-1.938-.342c-.684 0-1.33.114-1.938.342a4.648 4.648 0 0 0-1.577.969 4.598 4.598 0 0 0-1.054 1.51c-.26.59-.39 1.245-.39 1.967s.13 1.38.39 1.976a4.68 4.68 0 0 0 1.054 1.53c.444.424.97.756 1.577.997.608.24 1.254.361 1.938.361zm0-1.9c-.456 0-.848-.089-1.178-.266a2.536 2.536 0 0 1-.817-.684 2.93 2.93 0 0 1-.484-.95 3.553 3.553 0 0 1 0-2.119c.108-.348.27-.661.484-.94.216-.279.488-.504.817-.675.33-.17.722-.256 1.178-.256.456 0 .85.085 1.178.256.33.171.602.396.817.675.216.279.377.592.485.94a3.553 3.553 0 0 1 0 2.119 2.93 2.93 0 0 1-.485.95 2.536 2.536 0 0 1-.817.684c-.329.177-.722.266-1.178.266zM105.808 22v-4.883c0-.165.032-.386.095-.665a2.45 2.45 0 0 1 .361-.817 2.28 2.28 0 0 1 .741-.684c.317-.19.735-.285 1.254-.285a2.683 2.683 0 0 1 .703.095v-2.09a1.052 1.052 0 0 0-.266-.047 4.584 4.584 0 0 0-.285-.01c-.608 0-1.14.165-1.596.494-.456.33-.81.76-1.064 1.292h-.038v-1.52h-2.185V22h2.28zm8.393.266c1.71 0 3.014-.608 3.914-1.824l-1.52-1.216a2.705 2.705 0 0 1-.97.864c-.392.21-.873.314-1.443.314-.33 0-.646-.057-.95-.171a2.883 2.883 0 0 1-.817-.466 2.258 2.258 0 0 1-.836-1.605h6.935c.012-.101.019-.203.019-.304v-.304c0-.823-.111-1.542-.333-2.156-.222-.615-.529-1.128-.921-1.54a3.811 3.811 0 0 0-1.397-.93 4.815 4.815 0 0 0-1.757-.314c-.684 0-1.32.117-1.91.351a4.547 4.547 0 0 0-1.53.989c-.43.424-.769.937-1.016 1.538-.247.602-.37 1.27-.37 2.005 0 .747.123 1.416.37 2.005a4.239 4.239 0 0 0 1.026 1.491c.437.405.953.719 1.549.94a5.568 5.568 0 0 0 1.957.333zm2.052-5.738h-4.674c.05-.646.313-1.175.788-1.586.475-.412 1.055-.618 1.739-.618.367 0 .687.06.96.18.271.12.496.282.674.485.177.203.307.437.39.703.081.266.123.545.123.836z"/>
    </g>
</svg>
