<svg xmlns="http://www.w3.org/2000/svg" width="28" height="28" viewBox="0 0 28 28">
    <defs>
        <linearGradient id="aly96c0gha" x1="0%" x2="100%" y1="50%" y2="50%">
            <stop offset="0%" stop-color="#B64D1B"/>
            <stop offset="100%" stop-color="#EDC229"/>
        </linearGradient>
    </defs>
    <g fill="none" fill-rule="evenodd">
        <g>
            <g>
                <path fill="url(#aly96c0gha)" d="M17.707.293l10 10c.39.39.39 1.024 0 1.414l-16 16c-.39.39-1.024.39-1.414 0l-10-10c-.39-.39-.39-1.024 0-1.414l16-16c.39-.39 1.024-.39 1.414 0zM14.613 16.21c-.392-.305-.96-.278-1.32.083l-4 4-.083.094c-.305.392-.278.96.083 1.32l1 1 .094.083c.392.305.96.278 1.32-.083l.083-.094c.305-.392.278-.96-.083-1.32L11.415 21 14 18.415l.293.292.094.083c.392.305.96.278 1.32-.083.39-.39.39-1.024 0-1.414l-1-1zM9 13c-1.657 0-3 1.343-3 3s1.343 3 3 3 3-1.343 3-3-1.343-3-3-3zm10.707-1.707c-.39-.39-1.024-.39-1.414 0l-2 2-.083.094c-.305.392-.278.96.083 1.32.39.39 1.024.39 1.414 0l2-2 .083-.094c.305-.392.278-.96-.083-1.32zm0-4c-.39-.39-1.024-.39-1.414 0l-4 4-.083.094c-.305.392-.278.96.083 1.32.39.39 1.024.39 1.414 0l4-4 .083-.094c.305-.392.278-.96-.083-1.32z" transform="translate(-135 -308) translate(135 308)"/>
            </g>
        </g>
    </g>
</svg>
