<?xml version="1.0" encoding="utf-8"?>
<!-- Generator: Adobe Illustrator 23.1.0, SVG Export Plug-In . SVG Version: 6.00 Build 0)  -->
<svg version="1.0" xmlns="http://www.w3.org/2000/svg" xmlns:xlink="http://www.w3.org/1999/xlink" x="0px" y="0px"
	 viewBox="0 0 400 400" style="enable-background:new 0 0 400 400;" xml:space="preserve">
<style type="text/css">
	.st0{fill:#324938;}
	.st1{fill:none;stroke:#337F4B;stroke-width:40;stroke-miterlimit:10;}
	.st2{fill:#FFFFFF;}
</style>
<g id="Layer_1">
	<g>
		<path class="st0" d="M294.5,397.5h-187c-27.6,0-50-22.4-50-50v-237h287v237C344.5,375.1,322.1,397.5,294.5,397.5z"/>
	</g>
	<g>
		<path class="st1" d="M331.5,110.5v222.1c0,25.9-20.4,46.9-45.5,46.9H116c-25.1,0-45.5-21-45.5-46.9V110.5"/>
	</g>
</g>
<g id="Layer_2">
	<g>
		<path class="st2" d="M168.3,364.5c-4.6-0.8-9.4-1.1-13.9-2.4c-32.3-8.9-54.3-29-61.3-62.1c-6.8-32.1,4.6-58.6,30.1-79.1
			c6.2-5,13.3-8.7,20.7-11.7c3-1.2,6-1.2,9,0.1c3.8,1.7,5.9,4.7,6,8.9c0.1,3.9-2.4,7.5-6.2,8.9c-8.4,3.2-15.9,7.8-22.4,14.1
			C99.5,271.4,108.5,321,148,339c33.9,15.4,73.3-1.1,86.1-36c0.7-1.9,1.1-3.8,1.7-5.8c2.2-7.7,10.9-10.4,17-5.1
			c3.1,2.6,3.9,6,2.9,9.9c-7,26.6-23.2,45.2-48.4,56c-7.9,3.4-16.2,5.4-24.8,6.1c-0.5,0-1,0.3-1.5,0.4
			C176.7,364.5,172.5,364.5,168.3,364.5z"/>
		<path class="st2" d="M180.9,127c4.2,1.1,8.2,2.6,11.7,5.3c8.1,6.4,11,17.6,7.1,27.4c-4,9.8-13.6,15.6-24.4,14.6
			c-10-0.9-19-9.1-20.8-19c-2.4-13,5.7-25.1,18.7-27.9c0.4-0.1,0.8-0.3,1.3-0.4C176.5,127,178.7,127,180.9,127z"/>
		<path class="st2" d="M214.7,251.7c14.4,0,28.4,0,42.5,0c2.1,0,4.3,0.3,6.4,0.9c3.8,1.2,6.8,3.6,8.8,7.1
			c12.9,22.4,25.7,44.7,38.5,67.1c3.9,6.8,2.2,13.8-4.1,17.4c-6.2,3.6-13.9,1.2-17.6-5.4c-10.9-19-21.8-37.9-32.6-56.9
			c-0.8-1.3-1.6-1.8-3.1-1.8c-18.1,0.1-36.2,0-54.3,0c-2.6,0-5.3,0.3-7.8-0.3c-6.7-1.4-10.9-5.6-12.4-12.3
			c-4.6-21.8-9.1-43.5-13.5-65.3c-2.2-10.7,4.2-20.3,14.9-22.4c10.7-2.1,20.7,4.7,22.7,15.4c0.6,3.1,1.3,6.2,1.8,9.3
			c0.2,1.7,0.9,2.1,2.6,2.1c12.4-0.1,24.7-0.1,37.1,0c4.1,0,7.3,1.9,9.1,5.7c1.8,3.7,1.4,7.4-1.2,10.7c-2.2,2.8-5.2,3.7-8.6,3.7
			c-10.6,0-21.2,0-31.8,0c-0.7,0-1.5,0-2.5,0C211.4,235.3,213.1,243.4,214.7,251.7z"/>
	</g>
</g>
</svg>
